HIERARCHY
ROOT Root
{
  OFFSET 0.0 0.0 0.0
  CHANNELS 6 Xposition Yposition Zposition Zrotation Yrotation Xrotation
  JOINT Hips
  {
    OFFSET 0.0 100.0 0.0
    CHANNELS 6 Xposition Yposition Zposition Zrotation Yrotation Xrotation
    JOINT Spine1
    {
      OFFSET 5.003913 -0.037094 -0.013727
      CHANNELS 3 Zrotation Yrotation Xrotation
      JOINT Spine2
      {
        OFFSET 7.125363 -1e-06 0.0
        CHANNELS 3 Zrotation Yrotation Xrotation
        JOINT Chest
        {
          OFFSET 7.594027 1e-06 0.0
          CHANNELS 3 Zrotation Yrotation Xrotation
          JOINT Neck1
          {
            OFFSET 26.313086 -0.460272 -0.181672
            CHANNELS 3 Zrotation Yrotation Xrotation
            JOINT Neck2
            {
              OFFSET 8.045911 0.0 0.0
              CHANNELS 3 Zrotation Yrotation Xrotation
              JOINT Head
              {
                OFFSET 6.432774 0.0 0.0
                CHANNELS 3 Zrotation Yrotation Xrotation
                JOINT HeadEnd
                {
                  OFFSET 16.169773 0.06451 0.00362
                  CHANNELS 3 Zrotation Yrotation Xrotation
                }
                JOINT Jaw
                {
                  OFFSET 0.108741 3.12938 0.002639
                  CHANNELS 3 Zrotation Yrotation Xrotation
                }
                JOINT LeftEye
                {
                  OFFSET 4.45173 8.166359 3.206392
                  CHANNELS 3 Zrotation Yrotation Xrotation
                }
                JOINT RightEye
                {
                  OFFSET 4.436895 8.135758 -3.222429
                  CHANNELS 3 Zrotation Yrotation Xrotation
                }
              }
            }
          }
          JOINT LeftShoulder
          {
            OFFSET 23.218927 5.195579 1.621656
            CHANNELS 3 Zrotation Yrotation Xrotation
            JOINT LeftArm
            {
              OFFSET 15.902118 2e-06 -2e-06
              CHANNELS 3 Zrotation Yrotation Xrotation
              JOINT LeftForeArm
              {
                OFFSET 28.739307 0.0 -1e-06
                CHANNELS 3 Zrotation Yrotation Xrotation
                JOINT LeftHand
                {
                  OFFSET 27.093981 -4e-06 0.0
                  CHANNELS 3 Zrotation Yrotation Xrotation
                  JOINT LeftHandThumb1
                  {
                    OFFSET 2.276781 3.380274 0.83384
                    CHANNELS 3 Zrotation Yrotation Xrotation
                    JOINT LeftHandThumb2
                    {
                      OFFSET 4.705309 -1e-06 -1e-06
                      CHANNELS 3 Zrotation Yrotation Xrotation
                      JOINT LeftHandThumb3
                      {
                        OFFSET 2.798515 0.0 3e-06
                        CHANNELS 3 Zrotation Yrotation Xrotation
                        JOINT LeftHandThumbEnd
                        {
                          OFFSET 3.180793 4e-06 -4e-06
                          CHANNELS 3 Zrotation Yrotation Xrotation
                        }
                      }
                    }
                  }
                  JOINT LeftHandIndex1
                  {
                    OFFSET 3.247786 2.352677 0.137192
                    CHANNELS 3 Zrotation Yrotation Xrotation
                    JOINT LeftHandIndex2
                    {
                      OFFSET 6.367095 1e-06 0.0
                      CHANNELS 3 Zrotation Yrotation Xrotation
                      JOINT LeftHandIndex3
                      {
                        OFFSET 3.662364 0.0 0.0
                        CHANNELS 3 Zrotation Yrotation Xrotation
                        JOINT LeftHandIndex4
                        {
                          OFFSET 2.329242 4e-06 -4e-06
                          CHANNELS 3 Zrotation Yrotation Xrotation
                          JOINT LeftHandIndexEnd
                          {
                            OFFSET 2.767823 1e-06 0.0
                            CHANNELS 3 Zrotation Yrotation Xrotation
                          }
                        }
                      }
                    }
                  }
                  JOINT LeftHandMiddle1
                  {
                    OFFSET 3.163612 0.945023 -0.406112
                    CHANNELS 3 Zrotation Yrotation Xrotation
                    JOINT LeftHandMiddle2
                    {
                      OFFSET 6.276789 3e-06 0.0
                      CHANNELS 3 Zrotation Yrotation Xrotation
                      JOINT LeftHandMiddle3
                      {
                        OFFSET 4.35652 -1e-06 4e-06
                        CHANNELS 3 Zrotation Yrotation Xrotation
                        JOINT LeftHandMiddle4
                        {
                          OFFSET 2.996877 0.0 8e-06
                          CHANNELS 3 Zrotation Yrotation Xrotation
                          JOINT LeftHandMiddleEnd
                          {
                            OFFSET 2.323256 3e-06 -4e-06
                            CHANNELS 3 Zrotation Yrotation Xrotation
                          }
                        }
                      }
                    }
                  }
                  JOINT LeftHandRing1
                  {
                    OFFSET 2.882606 -0.309162 0.107445
                    CHANNELS 3 Zrotation Yrotation Xrotation
                    JOINT LeftHandRing2
                    {
                      OFFSET 6.033198 0.0 4e-06
                      CHANNELS 3 Zrotation Yrotation Xrotation
                      JOINT LeftHandRing3
                      {
                        OFFSET 4.350578 3e-06 0.0
                        CHANNELS 3 Zrotation Yrotation Xrotation
                        JOINT LeftHandRing4
                        {
                          OFFSET 2.651321 2e-06 -7e-06
                          CHANNELS 3 Zrotation Yrotation Xrotation
                          JOINT LeftHandRingEnd
                          {
                            OFFSET 1.937663 1e-06 -4e-06
                            CHANNELS 3 Zrotation Yrotation Xrotation
                          }
                        }
                      }
                    }
                  }
                  JOINT LeftHandPinky1
                  {
                    OFFSET 2.865315 -1.525436 0.575687
                    CHANNELS 3 Zrotation Yrotation Xrotation
                    JOINT LeftHandPinky2
                    {
                      OFFSET 5.54936 1e-06 -8e-06
                      CHANNELS 3 Zrotation Yrotation Xrotation
                      JOINT LeftHandPinky3
                      {
                        OFFSET 3.070974 0.0 -4e-06
                        CHANNELS 3 Zrotation Yrotation Xrotation
                        JOINT LeftHandPinky4
                        {
                          OFFSET 1.549672 1e-06 0.0
                          CHANNELS 3 Zrotation Yrotation Xrotation
                          JOINT LeftHandPinkyEnd
                          {
                            OFFSET 1.952123 0.0 0.0
                            CHANNELS 3 Zrotation Yrotation Xrotation
                          }
                        }
                      }
                    }
                  }
                }
              }
            }
          }
          JOINT RightShoulder
          {
            OFFSET 23.161716 5.296122 -1.380114
            CHANNELS 3 Zrotation Yrotation Xrotation
            JOINT RightArm
            {
              OFFSET -16.027195 -2e-06 1.1e-05
              CHANNELS 3 Zrotation Yrotation Xrotation
              JOINT RightForeArm
              {
                OFFSET -28.736639 4e-06 2e-06
                CHANNELS 3 Zrotation Yrotation Xrotation
                JOINT RightHand
                {
                  OFFSET -27.133619 6e-06 0.0
                  CHANNELS 3 Zrotation Yrotation Xrotation
                  JOINT RightHandThumb1
                  {
                    OFFSET -2.274328 -3.351035 -0.83067
                    CHANNELS 3 Zrotation Yrotation Xrotation
                    JOINT RightHandThumb2
                    {
                      OFFSET -4.703594 -3e-06 2e-06
                      CHANNELS 3 Zrotation Yrotation Xrotation
                      JOINT RightHandThumb3
                      {
                        OFFSET -2.794935 -4e-06 -3e-06
                        CHANNELS 3 Zrotation Yrotation Xrotation
                        JOINT RightHandThumbEnd
                        {
                          OFFSET -3.183852 4e-06 1e-06
                          CHANNELS 3 Zrotation Yrotation Xrotation
                        }
                      }
                    }
                  }
                  JOINT RightHandIndex1
                  {
                    OFFSET -3.253496 -2.33755 -0.127667
                    CHANNELS 3 Zrotation Yrotation Xrotation
                    JOINT RightHandIndex2
                    {
                      OFFSET -6.344434 0.0 0.0
                      CHANNELS 3 Zrotation Yrotation Xrotation
                      JOINT RightHandIndex3
                      {
                        OFFSET -3.654871 0.0 -8e-06
                        CHANNELS 3 Zrotation Yrotation Xrotation
                        JOINT RightHandIndex4
                        {
                          OFFSET -2.327586 -1e-06 0.0
                          CHANNELS 3 Zrotation Yrotation Xrotation
                          JOINT RightHandIndexEnd
                          {
                            OFFSET -2.770001 3e-06 8e-06
                            CHANNELS 3 Zrotation Yrotation Xrotation
                          }
                        }
                      }
                    }
                  }
                  JOINT RightHandMiddle1
                  {
                    OFFSET -3.168223 -0.944764 0.411762
                    CHANNELS 3 Zrotation Yrotation Xrotation
                    JOINT RightHandMiddle2
                    {
                      OFFSET -6.266691 -1e-06 -4e-06
                      CHANNELS 3 Zrotation Yrotation Xrotation
                      JOINT RightHandMiddle3
                      {
                        OFFSET -4.348901 0.0 0.0
                        CHANNELS 3 Zrotation Yrotation Xrotation
                        JOINT RightHandMiddle4
                        {
                          OFFSET -3.00024 2e-06 -4e-06
                          CHANNELS 3 Zrotation Yrotation Xrotation
                          JOINT RightHandMiddleEnd
                          {
                            OFFSET -2.321477 -4e-06 -4e-06
                            CHANNELS 3 Zrotation Yrotation Xrotation
                          }
                        }
                      }
                    }
                  }
                  JOINT RightHandRing1
                  {
                    OFFSET -2.885654 0.293261 -0.119232
                    CHANNELS 3 Zrotation Yrotation Xrotation
                    JOINT RightHandRing2
                    {
                      OFFSET -6.032835 -1e-06 -4e-06
                      CHANNELS 3 Zrotation Yrotation Xrotation
                      JOINT RightHandRing3
                      {
                        OFFSET -4.33881 0.0 -4e-06
                        CHANNELS 3 Zrotation Yrotation Xrotation
                        JOINT RightHandRing4
                        {
                          OFFSET -2.654903 -4e-06 -4e-06
                          CHANNELS 3 Zrotation Yrotation Xrotation
                          JOINT RightHandRingEnd
                          {
                            OFFSET -1.935122 0.0 4e-06
                            CHANNELS 3 Zrotation Yrotation Xrotation
                          }
                        }
                      }
                    }
                  }
                  JOINT RightHandPinky1
                  {
                    OFFSET -2.866241 1.503904 -0.60527
                    CHANNELS 3 Zrotation Yrotation Xrotation
                    JOINT RightHandPinky2
                    {
                      OFFSET -5.553177 -2e-06 0.0
                      CHANNELS 3 Zrotation Yrotation Xrotation
                      JOINT RightHandPinky3
                      {
                        OFFSET -3.062664 -1e-06 -4e-06
                        CHANNELS 3 Zrotation Yrotation Xrotation
                        JOINT RightHandPinky4
                        {
                          OFFSET -1.546529 2e-06 4e-06
                          CHANNELS 3 Zrotation Yrotation Xrotation
                          JOINT RightHandPinkyEnd
                          {
                            OFFSET -1.952341 0.0 -4e-06
                            CHANNELS 3 Zrotation Yrotation Xrotation
                          }
                        }
                      }
                    }
                  }
                }
              }
            }
          }
        }
      }
    }
    JOINT LeftLeg
    {
      OFFSET -8.443107 2.567604 10.043214
      CHANNELS 3 Zrotation Yrotation Xrotation
      JOINT LeftShin
      {
        OFFSET 43.229198 1e-06 -1e-06
        CHANNELS 3 Zrotation Yrotation Xrotation
        JOINT LeftFoot
        {
          OFFSET 42.298611 1e-06 1e-06
          CHANNELS 3 Zrotation Yrotation Xrotation
          JOINT LeftToeBase
          {
            OFFSET 14.165858 1e-06 0.0
            CHANNELS 3 Zrotation Yrotation Xrotation
            JOINT LeftToeEnd
            {
              OFFSET 6.7141 -0.234461 0.0
              CHANNELS 3 Zrotation Yrotation Xrotation
            }
          }
        }
      }
    }
    JOINT RightLeg
    {
      OFFSET -8.303923 2.592729 -10.047278
      CHANNELS 3 Zrotation Yrotation Xrotation
      JOINT RightShin
      {
        OFFSET -43.369682 0.0 1e-06
        CHANNELS 3 Zrotation Yrotation Xrotation
        JOINT RightFoot
        {
          OFFSET -42.260784 4e-06 2e-06
          CHANNELS 3 Zrotation Yrotation Xrotation
          JOINT RightToeBase
          {
            OFFSET -14.222245 -2e-06 -1e-06
            CHANNELS 3 Zrotation Yrotation Xrotation
            JOINT RightToeEnd
            {
              OFFSET -6.660062 0.232574 -2e-06
              CHANNELS 3 Zrotation Yrotation Xrotation
            }
          }
        }
      }
    }
  }
}
MOTION
Frames: 4
Frame Time: 0.03333333333333333
0.0 0.0 0.0 0.0 -0.0 0.0 -8.373531 49.24295 152.4897 90.440575 -47.350582 88.136993 14.930264 -1.843886 1.388115 -4.153989 -0.559294 3.053888 27.246243 -6.030401 0.068051 28.862583 -3.821075 2.060583 -2.701152 -0.451461 -1.630365 -26.853767 -5.616074 -2.462053 6e-06 0.0 -0.0 -0.215649 -0.045468 0.021655 0.129208 -0.096732 0.134467 0.15465 0.002835 -0.091203 -28.360594 -80.031494 37.636837 85.039642 -5.356732 -24.804203 13.370032 -1.416072 -0.103795 85.201591 69.163773 87.012146 17.63662 -26.322733 52.411201 -19.466665 -14.3956 29.410395 -3e-06 -8.774821 -1e-06 15.556448 -18.46505 6.290155 -0.609775 -1.795655 -3.889328 -4.807087 -11.046812 -2.937852 3e-06 -20.976023 -1e-06 -5.019969 -25.033562 -4.031882 6e-06 0.0 2e-06 -10.634533 -5.686972 -3.565587 10.573275 -17.922958 -3.113904 3e-06 -13.821213 -0.0 -0.501775 -31.181511 -4.02702 -11.277317 -59.568138 7.6007 -13.982714 -7.150199 -2.875041 13.77273 -8.401495 -3.218244 0.347734 -34.211559 0.771652 -0.963028 -17.733372 2.621019 0.0 1e-06 -0.0 -17.34642 -20.095224 -4.201779 21.757561 -1.638375 3.866426 1e-06 -6.338825 0.0 -1.697588 -22.591755 -6.194009 -0.0 -5e-06 -2e-06 -175.17337 -60.622349 0.179432 68.928398 1.639778 -53.843548 13.980116 -0.974743 -0.268081 35.873749 53.14315 38.411198 22.182117 -20.375895 49.933323 -16.701818 -16.743532 28.476534 -2e-06 -12.690602 -0.0 15.973366 -17.36441 2.586731 -0.105918 -1.513856 -4.275882 -5.039041 -5.61287 -2.953557 4e-06 -11.020526 -2e-06 -6.111297 -15.89533 -3.840471 0.0 -1e-06 0.0 -10.283371 -5.68029 -4.341839 11.028296 -11.302404 -2.372634 -1.384268 -14.238579 -6.320122 -0.625437 -26.924191 -3.827603 -3.743937 -50.366299 -4.190356 -13.708526 -7.363477 -3.72094 18.141153 -14.05274 -3.242677 6e-06 -18.78727 -2e-06 -0.429711 -8.456045 2.555503 -1e-06 0.0 0.0 -15.923536 -20.094484 -5.473587 30.419218 -7.190828 1.735924 2e-06 -8.162925 1e-06 -1.861902 -22.861469 -6.167942 0.0 -4e-06 -1e-06 103.927734 -5.750269 11.655344 126.891144 0.712584 0.520873 -35.811974 18.221968 3.750652 -3.637175 1.215052 2.496323 -0.999999 -1e-06 -0.0 -30.640667 4.13491 7.496033 83.114326 0.610554 -0.633608 -34.260506 19.832172 -3.608964 -5.365615 0.378707 1.571595 -1.000003 -1e-06 0.0 
0.0 0.0 0.0 0.0 -0.0 0.0 -7.888949 48.651783 155.028839 90.72821 -47.257732 86.260445 14.642761 -2.014793 1.439551 -4.357192 -0.545759 3.280618 27.068489 -6.266435 0.385244 29.202475 -4.372392 1.82362 -2.679091 -0.371044 -1.327112 -27.135153 -5.692237 -1.882863 6e-06 -1e-06 0.0 -0.217066 -0.081339 0.025383 0.113127 -0.149246 0.15251 0.157458 -0.019029 -0.102822 -32.887375 -80.983673 42.607113 83.998856 -8.046974 -24.364344 14.223698 -1.350843 -0.150267 88.145172 68.914513 90.356621 17.636627 -26.322733 52.411201 -19.466661 -14.395598 29.410395 -1e-06 -8.774821 -2e-06 15.64712 -18.377373 6.238554 -0.609776 -1.795653 -3.889328 -4.807089 -11.046811 -2.937852 4e-06 -20.976019 0.0 -5.019971 -25.033562 -4.03188 6e-06 0.0 -1e-06 -10.634537 -5.68697 -3.565587 10.573275 -17.922958 -3.113901 2e-06 -13.821213 1e-06 -0.501777 -31.181511 -4.027018 -11.151927 -59.556236 7.387481 -13.982715 -7.150198 -2.875043 13.772731 -8.401495 -3.218243 0.347734 -34.211555 0.771655 -0.963028 -17.73337 2.62102 0.0 1e-06 -0.0 -17.346422 -20.095221 -4.201783 21.757565 -1.638377 3.86643 2e-06 -6.338826 1e-06 -1.697589 -22.591751 -6.194008 -0.0 -6e-06 -2e-06 -175.981583 -59.925484 0.744986 71.568802 0.400891 -53.45488 13.748627 -0.679416 -0.226057 36.060116 54.305527 38.614979 22.182121 -20.375891 49.933319 -16.701809 -16.743528 28.476528 -2e-06 -12.6906 -2e-06 16.110527 -17.482658 2.62382 -0.105921 -1.513855 -4.275881 -5.039042 -5.612872 -2.953557 4e-06 -11.020524 -2e-06 -6.111298 -15.895328 -3.840471 0.0 -2e-06 -1e-06 -10.283371 -5.680288 -4.341839 11.028294 -11.302403 -2.372632 -1.384269 -14.238579 -6.320121 -0.625438 -26.924185 -3.827602 -3.878191 -50.651955 -4.019772 -13.708526 -7.363475 -3.72094 18.141151 -14.052735 -3.242673 5e-06 -18.787268 -1e-06 -0.429711 -8.456038 2.555504 -0.0 -1e-06 0.0 -15.923536 -20.094482 -5.473586 30.41921 -7.190824 1.73593 1e-06 -8.162921 1e-06 -1.861901 -22.861464 -6.167941 -1e-06 -3e-06 -1e-06 103.635155 -5.584662 11.195224 127.235336 0.877142 0.622587 -36.073891 19.48954 4.206748 -3.97226 1.217869 2.39987 -0.999998 -0.0 -0.0 -27.411692 3.601355 8.27282 79.313499 0.170685 -0.63171 -32.486401 19.835911 -3.350803 -4.906003 0.392838 1.575555 -1.000002 -0.0 0.0 
0.0 0.0 0.0 0.0 -0.0 0.0 -7.452664 48.132626 157.645905 91.223953 -47.586525 85.027 14.259465 -2.083609 1.417671 -4.616585 -0.574379 3.306875 26.681971 -6.300945 0.376906 29.299019 -4.464161 1.64713 -2.680547 -0.321536 -1.163019 -27.270823 -5.757796 -1.434801 6e-06 1e-06 -0.0 -0.228607 -0.113982 0.024986 0.03469 -0.18698 0.147937 0.091411 -0.04801 -0.099799 -35.766239 -82.084213 45.763783 82.634781 -11.162947 -24.237583 15.160679 -1.157335 -0.157638 90.257515 68.542557 92.547989 17.636627 -26.322733 52.411205 -19.466656 -14.3956 29.410393 -1e-06 -8.774822 -2e-06 15.811147 -18.324179 6.130642 -0.609776 -1.795653 -3.889328 -4.807088 -11.046813 -2.93785 5e-06 -20.976019 1e-06 -5.019971 -25.03356 -4.03188 6e-06 0.0 -0.0 -10.634534 -5.68697 -3.565587 10.573275 -17.922951 -3.113902 2e-06 -13.821208 1e-06 -0.501776 -31.181498 -4.027018 -11.113851 -59.569824 7.233975 -13.982714 -7.150198 -2.875041 13.772731 -8.401493 -3.218242 0.347733 -34.211555 0.771656 -0.963029 -17.73337 2.621019 0.0 -0.0 -0.0 -17.34642 -20.095217 -4.201781 21.757557 -1.638377 3.866428 1e-06 -6.338822 1e-06 -1.69759 -22.591742 -6.194005 -1e-06 -6e-06 -2e-06 -177.758743 -59.432297 2.124801 74.830826 -1.250014 -53.395935 13.726572 -0.480418 -0.160753 37.722309 55.710415 40.335899 22.182117 -20.375896 49.933331 -16.701817 -16.743532 28.476536 -3e-06 -12.690603 0.0 16.113775 -17.5599 2.689286 -0.10592 -1.513857 -4.275882 -5.039042 -5.612873 -2.953557 4e-06 -11.020527 -3e-06 -6.1113 -15.895338 -3.840472 0.0 0.0 -0.0 -10.283372 -5.680291 -4.34184 11.028297 -11.302405 -2.372634 -1.384268 -14.238581 -6.320123 -0.625437 -26.924194 -3.827603 -4.037151 -50.712517 -3.893373 -13.708527 -7.363476 -3.72094 18.141155 -14.052742 -3.242678 6e-06 -18.787271 -3e-06 -0.429712 -8.456044 2.555503 -0.0 0.0 0.0 -15.923536 -20.09449 -5.473587 30.419222 -7.190827 1.735925 2e-06 -8.162927 -1e-06 -1.861902 -22.861473 -6.167945 -1e-06 -3e-06 -2e-06 104.297737 -5.073692 10.485976 127.205254 1.048629 0.655897 -37.538433 19.808954 3.74054 -4.139047 1.195936 2.379187 -0.999999 0.0 -0.0 -24.472351 2.545476 8.414938 75.275139 -0.280544 -0.60195 -31.466751 19.819565 -3.294548 -4.45166 0.417672 1.580909 -1.000004 0.0 1e-06 
0.0 0.0 0.0 0.0 -0.0 0.0 -7.088052 47.71611 160.317047 92.199402 -48.317719 84.422211 13.765619 -2.111255 1.344024 -4.876667 -0.63244 3.076269 26.216305 -6.216227 -9.6e-05 29.044069 -4.06901 1.54314 -2.726513 -0.240348 -1.19886 -27.21438 -5.8804 -1.198292 6e-06 0.0 0.0 -0.232365 -0.121373 0.022989 -0.092693 -0.182723 0.11774 -0.03655 -0.065578 -0.074081 -36.021839 -83.304878 46.166588 81.214058 -14.492835 -24.968922 16.12933 -0.762765 -0.121584 90.867661 67.722397 92.348755 17.636627 -26.322737 52.411198 -19.466658 -14.395598 29.410389 -2e-06 -8.774822 -3e-06 15.942252 -18.269901 5.986409 -0.609775 -1.795653 -3.889328 -4.807087 -11.046809 -2.937851 4e-06 -20.976021 1e-06 -5.019971 -25.03356 -4.031881 6e-06 -1e-06 1e-06 -10.634534 -5.686968 -3.565587 10.573276 -17.922951 -3.113899 3e-06 -13.821209 2e-06 -0.501778 -31.181505 -4.027013 -11.031662 -59.58448 7.078409 -13.982713 -7.150198 -2.875041 13.77273 -8.401493 -3.218241 0.347733 -34.211544 0.771656 -0.963029 -17.73337 2.621021 -0.0 0.0 -0.0 -17.346416 -20.095215 -4.201783 21.757559 -1.638376 3.866429 1e-06 -6.338824 1e-06 -1.697589 -22.591747 -6.194008 -1e-06 -6e-06 -2e-06 179.797699 -59.141823 4.102535 78.34597 -3.18861 -53.939259 13.726232 -0.394516 -0.096974 41.200516 57.068848 43.798225 22.182121 -20.375898 49.933319 -16.701813 -16.74353 28.47653 -2e-06 -12.690601 -2e-06 15.976151 -17.515701 2.792772 -0.10592 -1.513856 -4.275881 -5.039041 -5.61287 -2.953556 4e-06 -11.020527 -1e-06 -6.111298 -15.89533 -3.840472 0.0 -1e-06 0.0 -10.283372 -5.680287 -4.341838 11.028296 -11.302407 -2.372632 -1.38427 -14.238581 -6.32012 -0.625441 -26.924194 -3.8276 -4.144852 -50.563931 -3.85866 -13.708525 -7.363477 -3.72094 18.141148 -14.052739 -3.242673 5e-06 -18.787268 -1e-06 -0.429712 -8.456042 2.555504 0.0 1e-06 0.0 -15.923539 -20.094486 -5.473585 30.419218 -7.190826 1.735928 2e-06 -8.162922 1e-06 -1.861902 -22.861469 -6.167941 -1e-06 -3e-06 -2e-06 105.704155 -3.905447 9.411974 126.423454 1.168723 0.653565 -39.790226 19.212057 2.15999 -4.504325 1.210155 2.359017 -1.0 0.0 0.0 -21.821608 0.884387 7.810699 70.810425 -0.715974 -0.54148 -30.276232 19.939121 -3.206666 -3.906175 0.426023 1.58516 -1.000003 0.0 -0.0 
